<?xml version="1.0" encoding="UTF-8"?>
<svg id="Layer_2" data-name="Layer 2" xmlns="http://www.w3.org/2000/svg" viewBox="0 0 432.73 374.44">
  <defs>
    <style>
      .cls-1 {
        fill: #fffff6;
        stroke-width: 0px;
      }
    </style>
  </defs>
  <g id="Layer_1-2" data-name="Layer 1">
    <path class="cls-1" d="M28.7,119.55c-7.49,0-14.99.01-22.48-.02-1.15,0-2.35-.06-3.45-.37-1.81-.52-2.46-2.07-1.51-3.52,2.61-3.98,2.35-8.36,2.34-12.78-.02-29.14-.02-58.28.02-87.42,0-3.9-.43-7.58-2.83-10.9C-.72,2.44-.03,1.18,2.51.75c.9-.15,1.82-.2,2.73-.2,11.49,0,22.98-.11,34.47.06,12.47.18,23.44,4.4,32.32,13.3,3.65,3.66,6.59,7.94,7.65,13.16.72,3.55,1.54,7.14,1.74,10.74.33,6.18-2.14,11.69-5.08,16.94-1.61,2.88-1.55,3.89.71,6.32,7.35,7.92,10.71,17.17,9.27,28.03-1.44,10.87-7.13,18.78-16.41,24.43-6.18,3.76-12.74,5.9-19.97,5.94-7.08.04-14.15,0-21.23,0,0,.03,0,.05,0,.08ZM40.83,71.89c-.01.08-.02.16-.03.24-2.41,0-4.83-.1-7.23.02-4.07.21-5.92,2.06-6.02,6.1-.1,4.07-.04,8.15,0,12.22.04,3.33,1.34,5.13,4.72,5.24,7.62.25,15.31.83,22.76-1.62,4.63-1.52,9.2-7.56,6.63-13.37-1.77-4.02-4.84-6.62-8.99-7.5-3.87-.81-7.89-.92-11.84-1.35ZM27.59,36.72s-.05,0-.08,0c0,2.33-.03,4.65,0,6.98.04,2.43,1.34,4.09,3.72,4.22,6.47.37,13.04.8,19.15-1.91,2.93-1.3,5.55-3.2,6.36-6.8,1.78-7.93-4.9-13.08-10.1-13.86-4.8-.72-9.77-.45-14.67-.36-2.7.05-4.25,1.8-4.38,4.49-.12,2.4-.02,4.82-.02,7.23ZM231.58,118.93c-1.01.18-2.03.51-3.04.52-8.99.06-17.98.05-26.96.11-1.66,0-3.02-.63-2.98-2.29.09-3.64-2.11-6.22-3.78-9.01-3.45-5.76-7.04-11.45-10.71-17.08-.72-1.11-1.97-2.18-3.2-2.58-3.3-1.1-5.71.24-5.79,3.72-.15,7.04.21,14.1.54,21.14.05,1.12,1.06,2.2,1.63,3.29.81,1.56.53,2.69-1.4,2.7-8.32.06-16.64.09-24.97.02-2.12-.02-3.23-1.69-2.13-3.67,1.96-3.53,1.61-7.24,1.61-10.95.02-30.63.05-61.26-.04-91.89,0-2.32-.71-4.74-1.53-6.94-1.43-3.84-.48-5.47,3.63-5.46,11.48.01,22.98-.23,34.45.13,13.53.43,24.63,6.19,32.86,16.98,5.53,7.25,8.03,15.68,8.46,24.74.76,15.83-4.77,28.9-17.11,39.01-2.3,1.89-2.44,3.84-.88,6.3,4.61,7.27,9.1,14.62,13.8,21.84,1.43,2.2,3.32,4.11,5.1,6.06.82.9,1.89,1.56,2.85,2.33-.14.33-.27.66-.41.99ZM174.88,44.47h-.06c0,4.99-.05,9.99.02,14.98.05,3.5,1.14,4.69,4.63,4.84,3.07.13,6.16.03,9.23-.16,7.21-.45,11.69-4.52,14.2-11.06,2.74-7.14,1.49-13.94-1.99-20.42-2.75-5.11-6.86-8.25-13.05-7.91-2.74.15-5.49-.05-8.23.08-3.74.18-4.66,1.12-4.71,4.91-.08,4.91-.02,9.82-.02,14.73ZM275.67,119.52c-7.16,0-14.32.03-21.47-.01-3.9-.02-4.88-1.32-3-4.72,1.95-3.53,1.68-7.14,1.68-10.9-.06-25.72,0-51.44,0-77.16,0-4,0-7.99,0-11.99,0-3.56-.65-6.91-2.69-9.95-1.55-2.32-.85-3.88,1.96-4.07,3.81-.26,7.65-.21,11.47-.19,11.07.06,22.18-.42,33.19.42,11.85.91,21.09,7.35,27.61,17.14,9.72,14.6,12.57,31.08,11.63,48.25-.5,9.13-2.26,18.18-5.75,26.69-3.51,8.58-8.72,16.06-16.63,21.22-5.58,3.64-11.67,5.71-18.54,5.43-6.48-.27-12.98-.06-19.47-.06,0-.04,0-.07,0-.11ZM276.83,62.21c.07,0,.13,0,.2,0,0,8.99.06,17.97-.02,26.96-.04,4.66,1.58,6.62,6.25,6.74,3.49.09,6.99-.11,10.48-.04,4.2.08,7.29-1.91,9.87-4.96,4.75-5.62,6.63-12.49,7.5-19.49.74-5.91.79-11.97.45-17.92-.42-7.26-2.19-14.33-5.99-20.64-3.21-5.33-7.47-9.14-14.41-8.06-1.38.21-2.82.03-4.24.02-8.13-.04-9.93,1.74-10.08,9.94,0,.17,0,.33,0,.5v26.96ZM219.67,186.59c-.37,11.6-2.81,23.06-8.82,33.49-4.84,8.39-11.28,15.5-19.95,20.04-9.69,5.07-19.92,6.37-30.63,3.11-13.83-4.22-23.6-13.04-30.25-25.65-6.64-12.58-8.22-26.11-6.78-39.98.59-5.7,2.35-11.32,4-16.85,2.4-8.09,7.03-15.01,12.84-21,9.45-9.74,20.92-15.04,34.72-13.4,7.57.9,14.54,3.89,20.77,8.46,8.16,5.98,14,13.68,18.08,22.91,4.03,9.12,5.74,18.64,6.03,28.88ZM195.71,186.01c-.22-.03-.44-.05-.66-.08.09-10.26-2.77-19.61-8.94-27.77-2.65-3.51-5.9-6.6-10.47-7.59-7.47-1.6-13.65,1.01-18.55,6.47-6.07,6.75-9.29,14.93-10.14,23.87-1.1,11.44,1.3,22.11,8.1,31.61,6.23,8.7,16.24,10.84,25.11,5.9,5.94-3.31,9.76-9.18,11.99-15.46,1.92-5.4,2.44-11.29,3.58-16.96ZM142.47,370.26c-4,0-8,.11-11.98-.08-1.01-.05-2.46-.86-2.82-1.7-.35-.8.32-2.17.79-3.17,1.47-3.12,3.45-6.06,4.53-9.3,1.89-5.65,3.23-11.49,4.87-17.23,1.14-3.99,2.45-7.94,3.61-11.92,1.64-5.65,3.23-11.31,4.8-16.97,1.54-5.52,2.95-11.07,4.56-16.57,1.75-5.97,3.72-11.87,5.47-17.84,1.09-3.72,1.92-7.51,2.91-11.25.23-.87.8-1.69.88-2.56.18-1.91.64-3.99.09-5.71-1.16-3.6-.63-4.78,3.23-4.81,6.82-.05,13.65-.05,20.47.04,2.64.03,5.3.23,7.92.62,2.57.38,3.29,1.74,2.19,4.08-.85,1.81-.66,3.41-.09,5.27,1.79,5.87,3.31,11.82,5.02,17.71,1.71,5.89,3.52,11.76,5.28,17.64.83,2.78,1.7,5.55,2.48,8.34,2.41,8.63,4.72,17.28,7.17,25.9,2.67,9.4,5.29,18.83,8.29,28.13.91,2.82,3.07,5.23,4.57,7.88.45.8.95,1.82.79,2.61-.09.44-1.49.86-2.3.87-7.99.07-15.98.09-23.97.05-3.12-.01-4.22-1.67-3.36-4.75.18-.63.47-1.38.29-1.95-1.57-5.06-3.11-10.13-4.94-15.1-.78-2.12-2.79-3-5.07-3-7.41,0-14.82-.05-22.22.02-3.71.03-5.35,2.76-6.46,5.71-1.05,2.78-1.73,5.71-2.55,8.58-.72,2.53-.88,5,.09,7.58.77,2.06.04,2.83-2.32,2.85-4.08.05-8.16.01-12.24.01ZM177.26,294.23c-.6.89-.97,1.25-1.13,1.69-1.4,3.88-2.88,7.75-4.11,11.68-1.06,3.39-1.95,6.84-2.69,10.32-.45,2.12.48,3.61,2.88,3.65,3.49.06,6.98.14,10.46.04,2.2-.07,3.16-1.43,2.54-3.57-2.04-7.1-4.14-14.18-6.29-21.25-.24-.79-.93-1.45-1.67-2.56ZM418.9,33.21c3.75,0,7.49.06,11.24-.04.89-.02,2.24-.33,2.51-.91.3-.64-.28-1.8-.69-2.64-1-2.07-2.1-4.09-3.21-6.11-1.52-2.75-2.75-5.74-4.69-8.16-6.65-8.28-15.81-12.66-25.96-14.42-12.05-2.09-23.82-.79-34.69,5.56-4.44,2.6-8.54,5.66-11.48,9.8-8.54,12-6.82,30.09,6.43,40.37,8.11,6.29,17.35,10.26,26.49,14.57,5.75,2.7,11.33,5.84,16.7,9.23,1.91,1.21,3.59,3.58,4.27,5.77.86,2.8-1.9,5.56-5.96,7.24-7.52,3.1-15.13,2.76-22.76.64-1.94-.54-3.44-1.61-3.04-4.14.11-.68-.48-1.76-1.08-2.2-.9-.65-2.09-1.24-3.17-1.27-7.64-.19-15.29-.23-22.94-.29-.48,0-1.19.1-1.39.42-.52.81-1.37,2.02-1.09,2.61,1.97,4.29,4.03,8.55,6.35,12.66,2.41,4.28,6.11,7.35,10.22,10.01,5.81,3.76,12.18,6.28,18.94,7.12,8.68,1.08,17.5,1.29,25.88-1.95,3.9-1.51,7.84-3.26,11.27-5.62,6.96-4.78,11.43-11.37,12.88-19.91.89-5.26.3-10.37-1.57-15.2-2.44-6.3-7.02-11.31-12.59-14.75-7.81-4.81-16.22-8.66-24.37-12.93-5.56-2.91-11.25-5.6-16.64-8.81-5.42-3.22-5.12-9.13.34-12.29,5.15-2.98,10.83-3.67,16.61-3.4,5.51.25,10.6,1.4,12.61,7.69.23.71,1.85,1.33,2.85,1.37,3.91.16,7.82.06,11.73.06v-.07ZM328.05,312.74c0,6.41.03,12.82,0,19.23-.05,7.41-.36,14.82-.19,22.22.11,4.95.32,9.77-2.41,14.23-.88,1.44.31,3.29,2.19,3.69.88.19,1.82.13,2.73.13,19.65,0,39.3-.03,58.95.06,2.18.01,4.36.78,6.52,1.25,1.23.26,2.83,1.23,3.55.77.82-.52,1.15-2.29,1.16-3.51.07-6.91,0-13.82-.05-20.73,0-.75-.03-1.51-.18-2.23-.36-1.74-1.23-2.41-3.05-1.58-1.19.54-2.51,1.03-3.79,1.07-12.55.31-25.1.59-37.65.71-2.78.03-3.97-1.49-4.01-4.38-.06-4.99-.01-9.99-.02-14.99,0-2.16,1.14-3.76,3.14-3.86,5.58-.27,11.23-1.36,16.63,1.42,3.45,1.78,4.65.89,4.66-3.04.02-6.74-.02-13.49,0-20.23.01-3.65-1.03-4.35-4.77-3.85-4.93.65-9.89,1.19-14.86,1.36-3.46.12-4.77-1.51-4.8-4.98-.04-4.33,0-8.66.01-12.99.01-4.32,1.54-5.78,5.88-5.77,9.82.03,19.65.1,29.47-.05,3.9-.06,7.39.82,10.58,2.96,1.31.88,2.02.39,2.43-.87.23-.7.36-1.47.36-2.2.02-7.24.03-14.48,0-21.73-.02-3.41-1.25-4.14-4.59-3.39-3.05.68-6.18,1.36-9.28,1.38-17.82.13-35.63.06-53.45.08-1.5,0-3,.04-4.49.15-4.35.33-4.79,1.23-2.91,5.1.82,1.7,1.59,3.54,1.81,5.38.38,3.13.41,6.31.42,9.47.04,13.24.02,26.48.02,39.72h-.01ZM71.31,326.23c-2.17-6.08-4.44-12.13-6.39-18.29-1.98-6.23-3.63-12.57-5.45-18.86-.92-3.19-1.91-6.35-2.83-9.54-1.21-4.21-2.58-8.4-3.52-12.67-.85-3.85-3.13-7.56-1-11.81.89-1.77-.74-2.98-2.41-3.33-1.78-.38-3.63-.57-5.45-.58-6.58-.04-13.15.02-19.73.05-.58,0-1.17.02-1.74.1-2.13.29-2.57,1.14-1.54,3.05.27.5.75.89,1.04,1.39,1.7,3.01,3.79,5.89,4.95,9.1,2.08,5.78,3.59,11.76,5.33,17.66,2.27,7.66,4.59,15.3,6.78,22.97,1.77,6.23,3.3,12.53,5.07,18.76,1.71,5.99,3.62,11.93,5.38,17.9,2.02,6.85,4.01,13.72,5.93,20.6.22.81.05,1.82-.21,2.65-1.01,3.19.03,4.86,3.38,4.88,9.32.04,18.65.03,27.97-.04,2.75-.02,3.36-1.02,2.06-3.39-1.17-2.12-1.08-4.08-.06-6.18.47-.96.71-2.03,1.01-3.06,1.67-5.91,3.31-11.83,5-17.73,1.85-6.45,3.75-12.88,5.6-19.33,1.58-5.49,3.1-11,4.71-16.48,1.8-6.11,3.76-12.17,5.52-18.29,1.72-5.98,3.17-12.03,4.97-17.98,1.25-4.11,2.67-8.18,5.61-11.55,2.48-2.84,1.94-4.36-1.94-4.53-8.63-.37-17.29-.33-25.93-.39-1.93-.01-2.66.83-1.75,2.89.72,1.61,1.53,3.54,1.27,5.16-.51,3.07-1.83,5.99-2.69,9.01-2.53,8.94-5,17.89-7.48,26.84-.71,2.56-1.28,5.16-2.05,7.7-1.78,5.95-3.63,11.88-5.49,17.81-.73,2.31-1.56,4.59-2.52,7.41-.77-1.03-1.23-1.42-1.4-1.91ZM232.8,186.6c0,15.56.06,31.13-.06,46.69-.02,2.43-.6,4.95-1.41,7.26-1.1,3.1-.59,4.32,2.65,4.34,7.74.05,15.48.03,23.22-.01,2.41-.01,2.94-1.22,1.98-3.41-.87-2-1.89-4.15-1.92-6.26-.19-11.32-.12-22.64-.07-33.96.01-2.71,1.03-3.79,3.8-3.91,3.15-.14,6.35-.3,9.47.07,2.4.29,4.84,1.13,7.02,2.2,2.46,1.21,3.34,1.03,3.37-1.75.08-7.82,0-15.65,0-23.47,0-2.19-1.05-3.06-3.17-2.56-1.85.44-3.66,1.23-5.53,1.35-3.56.24-7.15.16-10.73.13-3.45-.03-4.16-.66-4.22-4.05-.09-5.08-.08-10.15,0-15.23.05-3.23.55-3.8,3.82-3.83,11.4-.09,22.8-.17,34.2,0,2.27.04,4.6,1.06,6.77,1.95,2.15.88,3.5.5,3.51-1.58.07-8.07.08-16.14.02-24.22-.02-2.19-1.33-3.24-3.27-2.31-4.27,2.05-8.77,1.65-13.21,1.67-18.31.11-36.62.08-54.93.1-4.58,0-5,1.02-3.16,5.21,1.1,2.5,1.77,5.39,1.8,8.11.16,15.81.08,31.63.08,47.44h-.03ZM287.75,346.3c-5.66,0-11.32,0-16.98,0-4.38,0-5.05-.63-5.06-5.08-.03-9.16,0-18.31,0-27.47,0-16.57-.04-33.13.03-49.7.01-2.2.15-4.61,1.03-6.55,1.99-4.37,1.87-4.98-2.85-5.84-.98-.18-1.98-.34-2.97-.34-6.16-.05-12.31-.11-18.47-.06-3.76.03-4.52,1.75-2.95,5.23.96,2.12,1.75,4.55,1.76,6.84.12,31.3.09,62.6.11,93.9,0,2.07.34,4.19.05,6.21-.55,3.8,1.47,6.72,5.23,6.99,1.16.08,2.33.08,3.49.08,17.07,0,34.13,0,51.2,0,3.22,0,6.39-.2,9.33,1.89,1.92,1.37,3.35.49,3.37-1.71.09-7.74.11-15.48.05-23.23-.02-2.53-1.41-3.24-3.87-2.61-2.38.61-4.83,1.19-7.27,1.28-5.07.19-10.15.06-15.23.06,0,.03,0,.06,0,.09ZM115.02,119.54c4,0,7.99.06,11.99-.02,2.67-.06,3.05-.95,1.76-3.26-.63-1.13-1.23-2.4-1.39-3.67-.37-2.96-.63-5.96-.64-8.94-.08-29.47-.15-58.94-.05-88.42.01-3.16.63-6.5,1.81-9.42,1.16-2.89,1.48-3.23-1.46-4.32-.85-.32-1.76-.69-2.64-.7-7.24-.1-14.48-.26-21.71-.1-3.14.07-3.78,1.43-2.23,4.29,1.53,2.81,2.05,5.7,2.04,8.86-.09,31.97-.1,63.94-.22,95.91,0,1.63-.63,3.38-1.38,4.87-1.42,2.82-.5,4.84,2.65,4.92,3.83.09,7.66.02,11.49.02,0,0,0-.01,0-.02Z"/>
  </g>
</svg>